<mxfile host="Electron" agent="Mozilla/5.0 (Macintosh; Intel Mac OS X 10_15_7) AppleWebKit/537.36 (KHTML, like Gecko) draw.io/27.0.9 Chrome/134.0.6998.205 Electron/35.4.0 Safari/537.36" version="27.0.9">
  <diagram name="第 1 页" id="FHx8yXDjUlyIFakKhBWi">
    <mxGraphModel dx="795" dy="604" grid="1" gridSize="10" guides="1" tooltips="1" connect="1" arrows="1" fold="1" page="1" pageScale="1" pageWidth="827" pageHeight="1169" math="0" shadow="0">
      <root>
        <mxCell id="0" />
        <mxCell id="1" parent="0" />
        <mxCell id="dt54YoZoP9XJyNc-DkrU-8" style="edgeStyle=orthogonalEdgeStyle;rounded=0;orthogonalLoop=1;jettySize=auto;html=1;entryX=0;entryY=0.5;entryDx=0;entryDy=0;curved=1;" edge="1" parent="1" source="dt54YoZoP9XJyNc-DkrU-1" target="dt54YoZoP9XJyNc-DkrU-4">
          <mxGeometry relative="1" as="geometry" />
        </mxCell>
        <mxCell id="dt54YoZoP9XJyNc-DkrU-1" value="数据库" style="rounded=0;whiteSpace=wrap;html=1;fillColor=#ffe6cc;strokeColor=#d79b00;" vertex="1" parent="1">
          <mxGeometry x="70" y="130" width="120" height="60" as="geometry" />
        </mxCell>
        <mxCell id="dt54YoZoP9XJyNc-DkrU-6" style="edgeStyle=orthogonalEdgeStyle;rounded=0;orthogonalLoop=1;jettySize=auto;html=1;curved=1;" edge="1" parent="1" source="dt54YoZoP9XJyNc-DkrU-2" target="dt54YoZoP9XJyNc-DkrU-4">
          <mxGeometry relative="1" as="geometry" />
        </mxCell>
        <mxCell id="dt54YoZoP9XJyNc-DkrU-2" value="其他 api" style="rounded=0;whiteSpace=wrap;html=1;fillColor=#ffe6cc;strokeColor=#d79b00;" vertex="1" parent="1">
          <mxGeometry x="70" y="240" width="120" height="60" as="geometry" />
        </mxCell>
        <mxCell id="dt54YoZoP9XJyNc-DkrU-9" style="edgeStyle=orthogonalEdgeStyle;rounded=0;orthogonalLoop=1;jettySize=auto;html=1;entryX=0;entryY=0.5;entryDx=0;entryDy=0;curved=1;" edge="1" parent="1" source="dt54YoZoP9XJyNc-DkrU-3" target="dt54YoZoP9XJyNc-DkrU-4">
          <mxGeometry relative="1" as="geometry" />
        </mxCell>
        <mxCell id="dt54YoZoP9XJyNc-DkrU-3" value="日志" style="rounded=0;whiteSpace=wrap;html=1;fillColor=#ffe6cc;strokeColor=#d79b00;" vertex="1" parent="1">
          <mxGeometry x="70" y="350" width="120" height="60" as="geometry" />
        </mxCell>
        <mxCell id="dt54YoZoP9XJyNc-DkrU-11" value="" style="edgeStyle=orthogonalEdgeStyle;rounded=0;orthogonalLoop=1;jettySize=auto;html=1;" edge="1" parent="1" source="dt54YoZoP9XJyNc-DkrU-4" target="dt54YoZoP9XJyNc-DkrU-10">
          <mxGeometry relative="1" as="geometry" />
        </mxCell>
        <mxCell id="dt54YoZoP9XJyNc-DkrU-4" value="sli-exporter" style="ellipse;whiteSpace=wrap;html=1;aspect=fixed;" vertex="1" parent="1">
          <mxGeometry x="350" y="230" width="80" height="80" as="geometry" />
        </mxCell>
        <mxCell id="dt54YoZoP9XJyNc-DkrU-13" value="" style="edgeStyle=orthogonalEdgeStyle;rounded=0;orthogonalLoop=1;jettySize=auto;html=1;" edge="1" parent="1" source="dt54YoZoP9XJyNc-DkrU-10" target="dt54YoZoP9XJyNc-DkrU-12">
          <mxGeometry relative="1" as="geometry" />
        </mxCell>
        <mxCell id="dt54YoZoP9XJyNc-DkrU-10" value="prometheus" style="whiteSpace=wrap;html=1;" vertex="1" parent="1">
          <mxGeometry x="490" y="240" width="120" height="60" as="geometry" />
        </mxCell>
        <mxCell id="dt54YoZoP9XJyNc-DkrU-12" value="grafana" style="whiteSpace=wrap;html=1;" vertex="1" parent="1">
          <mxGeometry x="690" y="240" width="120" height="60" as="geometry" />
        </mxCell>
      </root>
    </mxGraphModel>
  </diagram>
</mxfile>
